<?xml version="1.0" standalone="no"?>
<!DOCTYPE svg PUBLIC "-//W3C//DTD SVG 20010904//EN"
 "http://www.w3.org/TR/2001/REC-SVG-20010904/DTD/svg10.dtd">
<svg version="1.0" xmlns="http://www.w3.org/2000/svg"
 width="2100.000000pt" height="1500.000000pt" viewBox="0 0 2100.000000 1500.000000"
 preserveAspectRatio="xMidYMid meet">
<metadata>
Created by potrace 1.16, written by Peter Selinger 2001-2019
</metadata>
<g transform="translate(0.000000,1500.000000) scale(0.100000,-0.100000)"
fill="#000000" stroke="none">
<path d="M9883 11160 c-492 -56 -947 -333 -1209 -735 -116 -178 -199 -381
-245 -600 -21 -95 -24 -138 -24 -315 0 -218 9 -282 61 -465 28 -98 86 -236
115 -274 24 -30 24 -57 2 -70 -16 -8 -14 -10 9 -16 18 -5 41 -29 74 -78 256
-387 619 -629 1094 -728 125 -26 397 -32 520 -11 361 61 676 216 913 449 258
253 404 522 479 880 20 92 23 138 23 313 0 230 -16 331 -82 529 -217 653 -828
1106 -1517 1126 -77 2 -174 0 -213 -5z m534 -140 c252 -60 517 -207 706 -389
248 -241 404 -544 463 -901 14 -89 18 -336 6 -405 -6 -34 -11 -40 -35 -43 -45
-5 -89 36 -111 103 -21 67 -46 95 -83 95 -20 0 -46 17 -88 55 -75 68 -110 81
-190 66 -53 -10 -61 -9 -80 9 -37 35 -80 26 -174 -35 -71 -47 -91 -55 -131
-55 -61 0 -84 25 -100 107 -17 86 -27 97 -97 103 l-58 5 2 50 c1 28 3 70 5 95
3 42 1 45 -24 48 -21 3 -37 -7 -70 -41 -47 -49 -100 -67 -146 -51 -41 15 -77
95 -76 174 0 76 21 120 71 151 27 17 42 19 90 13 47 -5 61 -3 72 10 10 11 31
16 73 16 65 0 71 -4 146 -98 59 -75 70 -44 22 63 -44 98 -39 122 33 153 26 11
27 13 27 95 0 87 7 104 53 120 9 4 17 14 17 23 0 29 31 54 65 54 18 0 38 6 44
13 13 17 5 28 -16 20 -9 -3 -32 11 -58 37 -42 41 -45 43 -63 27 -31 -28 -38
-19 -8 12 24 25 33 28 67 24 37 -5 39 -4 39 22 0 32 -25 65 -48 65 -9 0 -39
16 -69 37 -39 27 -69 38 -113 45 -33 4 -73 14 -88 22 -15 7 -42 17 -59 21 -41
8 -43 -7 -8 -55 14 -19 25 -46 25 -61 0 -15 4 -39 10 -53 5 -15 6 -26 0 -26
-5 0 -44 24 -87 53 -94 64 -123 77 -168 77 -19 0 -35 3 -35 6 0 18 25 45 65
68 27 17 47 36 51 51 8 31 22 31 131 5z m-927 -100 c11 -11 20 -30 20 -42 0
-13 11 -45 25 -72 14 -27 25 -57 25 -66 0 -26 -30 -132 -46 -165 -8 -16 -18
-50 -20 -75 -5 -42 2 -60 93 -240 65 -128 105 -196 117 -198 15 -3 13 5 -13
55 -30 57 -37 83 -25 96 11 11 42 -12 65 -49 12 -20 46 -63 75 -96 32 -38 57
-78 65 -105 15 -56 87 -136 148 -167 25 -13 89 -32 141 -41 56 -11 116 -29
145 -45 28 -15 66 -30 85 -34 21 -3 64 -29 105 -61 137 -108 172 -128 226
-131 27 -2 54 -6 59 -9 6 -4 10 -39 10 -80 0 -75 -6 -88 -67 -153 -7 -7 -13
-32 -13 -55 0 -23 -7 -54 -14 -69 -17 -32 -11 -57 28 -133 14 -27 26 -54 26
-59 0 -29 76 -159 104 -178 48 -33 56 -48 56 -105 0 -68 -11 -93 -98 -228 -69
-107 -86 -133 -203 -297 -29 -43 -65 -82 -79 -87 -14 -5 -82 -24 -151 -40
-119 -29 -139 -31 -318 -31 -167 0 -206 3 -307 25 -352 76 -635 239 -861 495
-278 313 -423 751 -385 1158 52 556 369 1024 852 1260 47 23 91 42 97 42 7 0
22 -9 33 -20z"/>
<path d="M8059 9602 l-34 -30 -6 -189 c-3 -103 -12 -263 -18 -355 -7 -92 -11
-234 -9 -315 3 -144 4 -150 38 -228 20 -44 54 -107 75 -140 60 -90 217 -248
332 -334 133 -99 269 -184 283 -176 14 9 -94 139 -181 216 -278 248 -341 341
-341 508 0 79 9 100 64 157 37 38 38 42 26 70 -8 20 -14 123 -18 329 -6 272
-8 306 -28 366 -26 77 -74 137 -118 145 -26 5 -38 0 -65 -24z"/>
<path d="M11960 9623 c-27 -10 -52 -38 -76 -85 -46 -91 -54 -152 -54 -441 0
-216 -3 -275 -15 -304 -15 -36 -15 -36 18 -67 150 -138 65 -402 -197 -610 -85
-67 -232 -221 -257 -268 -20 -37 12 -24 141 61 132 86 196 137 313 251 119
115 197 222 243 335 27 66 29 80 32 234 2 91 -2 242 -8 335 -6 94 -14 243 -17
331 -6 166 -15 204 -52 225 -21 11 -47 12 -71 3z"/>
<path d="M7528 9239 c-23 -13 -22 -37 2 -220 61 -467 169 -798 347 -1066 65
-98 128 -169 263 -300 111 -107 125 -118 421 -336 326 -240 471 -384 583 -582
95 -165 139 -340 134 -535 -1 -63 1 -121 6 -128 13 -21 120 -15 172 9 104 49
219 191 308 380 74 156 97 251 103 419 6 162 -4 250 -43 380 -32 105 -115 279
-184 383 -70 105 -206 246 -293 303 -97 64 -248 176 -327 243 -149 125 -195
170 -245 241 -57 81 -208 233 -265 267 -93 56 -178 52 -240 -12 -35 -36 -35
-37 -35 -123 0 -76 4 -94 29 -142 67 -130 156 -229 311 -347 162 -123 262
-257 273 -367 4 -40 2 -47 -9 -41 -29 17 -327 231 -419 301 -107 80 -279 254
-358 359 -89 120 -129 216 -181 435 -69 290 -137 432 -225 474 -38 18 -102 21
-128 5z"/>
<path d="M12442 9233 c-91 -45 -155 -187 -237 -528 -60 -251 -138 -379 -371
-606 -93 -90 -395 -320 -558 -425 l-29 -18 6 51 c13 116 112 245 287 378 118
90 216 193 268 282 54 93 65 133 60 214 -3 62 -7 72 -38 104 -39 40 -94 59
-145 49 -89 -16 -232 -137 -350 -294 -104 -139 -321 -323 -570 -485 -150 -98
-312 -296 -409 -499 -82 -171 -115 -296 -123 -469 -10 -215 20 -355 117 -548
70 -139 112 -203 179 -270 82 -82 144 -111 229 -107 l67 3 -3 125 c-8 278 88
531 287 759 104 119 200 198 596 491 427 315 619 581 761 1050 52 174 103 449
120 657 6 75 5 82 -14 92 -30 16 -92 13 -130 -6z"/>
<path d="M14683 6375 c-198 -55 -421 -271 -617 -595 -75 -123 -221 -423 -281
-575 -60 -150 -154 -434 -193 -583 -34 -126 -33 -131 35 -113 51 14 63 29 103
131 75 193 209 367 312 405 87 32 97 8 43 -108 -58 -126 -93 -316 -71 -385 17
-51 101 -64 165 -25 39 25 111 95 111 110 0 19 -4 17 -48 -27 -49 -49 -88 -54
-98 -12 -3 15 -7 32 -9 37 -6 21 16 143 36 200 12 33 39 95 60 137 70 138 49
182 -73 159 -122 -24 -253 -118 -333 -240 -22 -33 -43 -61 -47 -61 -13 0 107
385 188 600 179 483 368 737 604 816 74 24 194 25 237 1 36 -19 63 -63 63
-102 0 -38 19 -30 40 18 35 76 18 156 -41 198 -38 27 -119 33 -186 14z"/>
<path d="M8010 6333 c-274 -118 -679 -734 -876 -1328 -59 -179 -84 -296 -84
-392 0 -55 4 -67 25 -88 31 -32 67 -32 133 1 65 32 190 164 156 164 -4 0 -25
-20 -48 -44 -44 -48 -87 -66 -111 -46 -23 19 -28 71 -15 187 36 340 189 756
388 1058 90 135 245 291 332 335 107 54 238 51 248 -5 7 -38 21 -39 37 -2 27
66 12 155 -30 171 -29 11 -119 5 -155 -11z"/>
<path d="M5860 6181 c-30 -10 -80 -29 -110 -43 -42 -20 -78 -27 -154 -32 -54
-3 -128 -13 -165 -22 -143 -35 -293 -126 -371 -225 -48 -61 -95 -148 -84 -157
4 -4 9 -2 11 5 14 40 88 136 142 184 108 98 240 149 386 149 l80 0 -31 -25
c-39 -30 -132 -151 -172 -225 -52 -92 -87 -187 -152 -411 -140 -485 -177 -548
-342 -579 -63 -12 -118 1 -172 41 -22 16 -48 29 -58 29 -32 0 -86 -27 -97 -49
-10 -19 -5 -25 51 -67 198 -146 402 -221 667 -245 433 -39 733 86 811 338 63
205 -28 425 -219 527 l-63 33 62 11 c176 31 293 146 307 300 8 91 -16 159 -81
230 -74 79 -132 106 -321 151 l-29 7 35 20 c19 11 56 29 82 39 26 10 47 22 47
26 0 5 -1 9 -2 8 -2 0 -28 -8 -58 -18z m-63 -181 c211 -74 301 -304 180 -462
-61 -79 -180 -119 -263 -88 -36 14 -80 -1 -124 -41 l-34 -32 75 -26 c191 -68
294 -171 326 -329 38 -182 -43 -348 -208 -431 -88 -44 -153 -54 -314 -48 -113
4 -157 10 -230 31 -103 31 -251 99 -321 147 l-48 33 70 12 c136 23 212 74 294
201 74 113 135 272 234 613 43 146 115 300 182 389 47 62 48 63 87 57 21 -4
64 -15 94 -26z"/>
<path d="M11083 6105 c-180 -39 -316 -180 -373 -387 -21 -76 -28 -214 -10
-203 6 3 10 23 10 43 0 57 27 168 54 228 33 72 115 157 185 191 48 24 69 28
141 28 76 0 91 -3 139 -30 64 -35 110 -89 151 -176 114 -245 84 -701 -75
-1139 -25 -69 -42 -132 -39 -143 12 -37 38 -12 69 68 82 210 229 510 348 710
67 113 240 375 245 371 1 -2 -2 -23 -7 -47 -16 -69 -13 -264 10 -534 12 -155
19 -312 17 -412 -1 -89 1 -165 4 -168 14 -15 52 20 95 88 84 131 135 190 393
452 141 143 277 287 302 320 129 173 188 330 188 505 0 96 -21 160 -66 200
-29 25 -43 30 -84 30 -43 0 -55 -5 -90 -36 -41 -37 -71 -80 -89 -126 -17 -45
4 -40 37 8 18 24 39 47 47 50 31 12 65 -6 87 -49 19 -36 23 -57 22 -142 -1
-118 -26 -219 -80 -328 -73 -143 -132 -218 -389 -487 -86 -91 -177 -191 -201
-223 l-44 -59 0 119 c0 65 -9 219 -20 343 -42 475 -16 673 98 745 33 21 39 39
22 65 -9 12 -23 2 -77 -55 -198 -209 -394 -495 -572 -835 -44 -85 -81 -152
-81 -148 0 3 15 60 34 125 98 341 104 676 15 859 -27 57 -94 131 -138 153 -79
40 -173 49 -278 26z"/>
<path d="M13473 5421 c-47 -22 -67 -49 -142 -199 -46 -92 -54 -102 -79 -102
-34 0 -112 -35 -112 -51 0 -7 9 -9 23 -6 12 3 40 9 61 13 35 6 38 5 33 -12 -3
-10 -24 -71 -46 -134 -45 -130 -71 -247 -71 -315 0 -38 5 -52 28 -75 74 -73
211 -31 302 93 40 54 27 68 -17 17 -61 -71 -136 -92 -167 -48 -32 45 -9 186
64 394 36 105 35 104 166 104 40 0 76 5 79 10 4 6 -28 10 -89 10 -82 0 -96 2
-96 16 0 19 101 223 131 265 10 15 19 30 19 33 0 12 -46 5 -87 -13z"/>
<path d="M6612 5131 c-72 -18 -168 -77 -233 -141 -118 -118 -170 -263 -135
-382 48 -165 200 -128 365 88 l47 62 -1 -103 c0 -96 2 -105 24 -129 28 -29 37
-31 95 -14 46 14 171 128 148 136 -8 2 -20 -5 -28 -17 -20 -28 -71 -53 -93
-46 -70 22 8 322 125 488 53 74 48 79 -46 47 -57 -19 -62 -19 -92 -4 -37 19
-129 27 -176 15z m119 -54 c19 -12 35 -32 37 -43 6 -42 -137 -279 -221 -366
-112 -115 -177 -94 -177 59 0 167 75 307 192 358 52 23 129 19 169 -8z"/>
<path d="M7791 5125 c-195 -55 -362 -258 -362 -441 0 -158 88 -221 206 -149
49 29 154 134 186 185 30 50 39 51 28 3 -21 -92 -2 -187 42 -212 42 -23 98 -1
172 69 67 63 74 97 7 36 -74 -67 -106 -44 -97 72 9 121 78 299 154 400 41 53
29 61 -53 33 -52 -17 -61 -18 -86 -5 -42 22 -135 26 -197 9z m119 -40 c16 -8
36 -25 44 -36 14 -20 12 -27 -21 -93 -72 -143 -194 -306 -258 -346 -46 -28
-78 -21 -99 24 -31 65 -12 215 38 314 29 56 88 115 136 136 45 20 123 20 160
1z"/>
<path d="M8383 5121 c-49 -23 -133 -97 -133 -119 0 -9 17 1 45 27 48 44 52 46
74 32 12 -8 13 -18 2 -68 -14 -66 -126 -404 -146 -443 -20 -38 -6 -53 41 -44
62 11 69 18 104 106 18 46 53 123 79 172 79 152 221 283 298 274 24 -3 28 -7
27 -33 -1 -16 -18 -66 -38 -111 -72 -161 -98 -336 -56 -381 28 -31 56 -37 105
-23 63 18 192 137 171 157 -3 3 -24 -13 -46 -35 -76 -79 -120 -67 -120 33 0
78 27 168 91 304 27 57 49 112 49 122 0 58 -112 61 -222 6 -62 -30 -174 -131
-230 -207 l-26 -35 24 84 c38 131 40 155 15 180 -26 26 -53 26 -108 2z"/>
<path d="M9380 5131 c-129 -40 -271 -198 -315 -354 -24 -82 -23 -182 2 -216
48 -65 133 -75 238 -27 55 25 165 120 165 142 0 21 -9 17 -52 -22 -44 -40
-111 -73 -145 -74 -70 0 -97 46 -94 160 4 190 76 320 176 320 65 0 100 -33 99
-95 -1 -36 2 -45 15 -43 24 5 81 86 81 117 0 70 -87 117 -170 92z"/>
<path d="M9919 5126 c-96 -34 -185 -122 -242 -238 -43 -89 -56 -142 -57 -221
0 -117 46 -162 166 -161 56 0 81 5 127 28 71 34 164 117 153 135 -6 9 -18 3
-45 -22 -64 -63 -150 -83 -211 -52 -44 23 -60 63 -60 149 0 70 2 76 23 80 187
35 281 70 327 123 52 59 32 136 -45 173 -47 23 -85 25 -136 6z m32 -56 c29
-16 51 -67 44 -100 -12 -54 -81 -93 -202 -114 -39 -7 -41 3 -18 82 31 102 114
165 176 132z"/>
<path d="M12888 5082 c-112 -66 -156 -97 -147 -106 3 -4 30 9 59 29 29 20 54
34 55 33 2 -2 -16 -44 -40 -93 -61 -126 -96 -237 -102 -325 -5 -63 -3 -79 11
-93 25 -25 63 -31 106 -18 42 12 143 90 161 122 20 38 -1 33 -44 -9 -52 -51
-93 -57 -103 -16 -17 65 31 233 116 413 45 93 52 122 32 121 -4 -1 -51 -26
-104 -58z"/>
<path d="M14615 5102 c-89 -47 -185 -111 -185 -123 0 -14 8 -11 62 26 29 19
53 33 55 31 2 -1 -17 -45 -41 -97 -90 -190 -127 -351 -92 -403 38 -58 133 -37
226 50 64 60 67 91 4 35 -49 -43 -83 -51 -104 -26 -30 36 25 243 111 420 48
99 57 125 42 125 -5 0 -39 -17 -78 -38z"/>
<path d="M14962 5130 c-66 -27 -165 -120 -147 -138 4 -4 16 6 27 21 11 15 34
35 50 43 26 14 32 14 45 2 12 -12 9 -31 -21 -134 -19 -65 -55 -177 -81 -249
-62 -170 -62 -171 -6 -167 61 4 76 14 90 64 21 69 96 223 146 298 74 111 176
189 248 190 24 0 27 -4 27 -30 0 -17 -11 -52 -24 -78 -58 -114 -105 -306 -92
-376 8 -40 46 -76 83 -76 55 0 135 52 196 128 39 50 25 52 -26 5 -55 -51 -82
-60 -108 -37 -41 37 -11 191 71 362 54 112 59 141 33 167 -13 14 -28 16 -72
11 -114 -13 -243 -96 -327 -210 -27 -36 -49 -64 -51 -63 -1 2 9 43 22 92 29
104 31 147 9 169 -17 18 -56 20 -92 6z"/>
</g>
</svg>
